# xmcd
# 
# Track frame offsets:
#     150
#     15037
#     29700
#     45772
#     64425
#     77900
#     96012
#     115800
#     133510
#     146700
#     160585
# 
# Disc length: 2474
# 
# Revision: 1
# Processed by: cddbd v1.5.2PL0 Copyright (c) Steve Scherf et al.
# Submitted via: BonkEnc v1.0.5
# 
DISCID=8509a80b
DTITLE=HOUND DOG - Power Up!
DYEAR=1981
DGENRE=Pop
TTITLE0=Bye Bye Dancin' Blue Suede Shoes
TTITLE1=ANYWAY
TTITLE2=レイルロード・ブルース
TTITLE3=ライム・ライト
TTITLE4=ねえ先生
TTITLE5=スクール・ディズ
TTITLE6=Hot Line
TTITLE7=BACK STREET
TTITLE8=PIN UP GIRL
TTITLE9=Give me a Chance
TTITLE10=涙のBirthday
EXTD=
EXTT0=
EXTT1=
EXTT2=
EXTT3=
EXTT4=
EXTT5=
EXTT6=
EXTT7=
EXTT8=
EXTT9=
EXTT10=
PLAYORDER=
